<svg width="11" height="11" viewBox="0 0 11 11" fill="none" xmlns="http://www.w3.org/2000/svg">
<path d="M9.91504 3.04649C9.77105 2.71309 9.56343 2.41097 9.30381 2.15704C9.04399 1.90235 8.73766 1.69995 8.40147 1.56085C8.05286 1.41604 7.67895 1.34191 7.30147 1.34278C6.77188 1.34278 6.25518 1.4878 5.80615 1.76173C5.69873 1.82725 5.59668 1.89923 5.5 1.97764C5.40332 1.89923 5.30127 1.82725 5.19385 1.76173C4.74482 1.4878 4.22813 1.34278 3.69854 1.34278C3.31719 1.34278 2.94766 1.41583 2.59854 1.56085C2.26123 1.7005 1.95723 1.90137 1.69619 2.15704C1.43623 2.41069 1.22856 2.71288 1.08496 3.04649C0.935645 3.39346 0.859375 3.76192 0.859375 4.14112C0.859375 4.49884 0.932422 4.87159 1.07744 5.25079C1.19883 5.56768 1.37285 5.89639 1.59521 6.22833C1.94756 6.75362 2.43203 7.30147 3.03359 7.85684C4.03047 8.77745 5.01768 9.41339 5.05957 9.43917L5.31416 9.60245C5.42695 9.67442 5.57197 9.67442 5.68477 9.60245L5.93936 9.43917C5.98125 9.41231 6.96738 8.77745 7.96533 7.85684C8.5669 7.30147 9.05137 6.75362 9.40371 6.22833C9.62607 5.89639 9.80117 5.56768 9.92148 5.25079C10.0665 4.87159 10.1396 4.49884 10.1396 4.14112C10.1406 3.76192 10.0644 3.39346 9.91504 3.04649Z" fill="#4F4F4F"/>
</svg>
